<svg width="20" height="20" viewBox="0 0 20 20" fill="none" xmlns="http://www.w3.org/2000/svg">
<path d="M4.47685 19.9996H0.330418V6.64687H4.47685V19.9996ZM2.4014 4.82545C1.07551 4.82545 6.10352e-05 3.72723 6.10352e-05 2.40134C6.10446e-05 1.76446 0.253059 1.15367 0.703397 0.703336C1.15374 0.252997 1.76453 0 2.4014 0C3.03828 0 3.64907 0.252997 4.0994 0.703336C4.54974 1.15367 4.80274 1.76446 4.80274 2.40134C4.80274 3.72723 3.72685 4.82545 2.4014 4.82545ZM19.9956 19.9996H15.8581V13.4996C15.8581 11.9504 15.8268 9.96384 13.7023 9.96384C11.5465 9.96384 11.2161 11.6469 11.2161 13.3879V19.9996H7.07417V6.64687H11.051V8.4683H11.109C11.6626 7.4192 13.0148 6.31205 15.0322 6.31205C19.2286 6.31205 20.0001 9.07545 20.0001 12.6647V19.9996H19.9956Z" fill="white"/>
</svg>
