<svg width="20" height="17" viewBox="0 0 20 17" fill="none" xmlns="http://www.w3.org/2000/svg">
<path d="M17.9443 4.04822C17.957 4.22588 17.957 4.40357 17.957 4.58123C17.957 10 13.8326 16.2437 6.2945 16.2437C3.97215 16.2437 1.81479 15.5711 6.10352e-05 14.4036C0.330023 14.4417 0.647251 14.4544 0.989909 14.4544C2.90613 14.4544 4.67012 13.8072 6.07876 12.7031C4.27672 12.665 2.76656 11.4848 2.24624 9.86043C2.50007 9.89848 2.75386 9.92387 3.02039 9.92387C3.38839 9.92387 3.75644 9.87309 4.09906 9.7843C2.22089 9.40355 0.812213 7.75382 0.812213 5.76143V5.71069C1.35788 6.01526 1.99245 6.20561 2.66499 6.23096C1.56093 5.4949 0.837603 4.23857 0.837603 2.81724C0.837603 2.05583 1.04061 1.35786 1.39596 0.748714C3.41375 3.23603 6.44677 4.86037 9.84776 5.03807C9.78432 4.7335 9.74623 4.41627 9.74623 4.099C9.74623 1.84009 11.5737 0 13.8452 0C15.0254 0 16.0914 0.494924 16.8402 1.29442C17.7665 1.11676 18.6549 0.774105 19.4417 0.304572C19.1371 1.25637 18.4899 2.05587 17.6397 2.56345C18.4645 2.47466 19.264 2.24618 20.0001 1.92895C19.4418 2.7411 18.7438 3.46443 17.9443 4.04822Z" fill="white"/>
</svg>
