<svg width="20" height="20" viewBox="0 0 20 20" fill="none" xmlns="http://www.w3.org/2000/svg">
<path d="M10.0023 4.87117C7.16459 4.87117 4.87569 7.16007 4.87569 9.99777C4.87569 12.8355 7.16459 15.1244 10.0023 15.1244C12.84 15.1244 15.1289 12.8355 15.1289 9.99777C15.1289 7.16007 12.84 4.87117 10.0023 4.87117ZM10.0023 13.3307C8.16849 13.3307 6.66933 11.836 6.66933 9.99777C6.66933 8.15951 8.16403 6.66481 10.0023 6.66481C11.8406 6.66481 13.3353 8.15951 13.3353 9.99777C13.3353 11.836 11.8361 13.3307 10.0023 13.3307ZM16.5344 4.66146C16.5344 5.32627 15.9989 5.85722 15.3386 5.85722C14.6738 5.85722 14.1428 5.32181 14.1428 4.66146C14.1428 4.00112 14.6783 3.4657 15.3386 3.4657C15.9989 3.4657 16.5344 4.00112 16.5344 4.66146ZM19.9298 5.87507C19.8539 4.27329 19.4881 2.85443 18.3146 1.68544C17.1456 0.516453 15.7268 0.150586 14.125 0.0702733C12.4741 -0.0234244 7.526 -0.0234244 5.87513 0.0702733C4.27781 0.146124 2.85896 0.511991 1.6855 1.68098C0.512052 2.84997 0.150647 4.26882 0.0703343 5.87061C-0.0233634 7.52147 -0.0233634 12.4696 0.0703343 14.1205C0.146185 15.7223 0.512052 17.1411 1.6855 18.3101C2.85896 19.4791 4.27335 19.845 5.87513 19.9253C7.526 20.019 12.4741 20.019 14.125 19.9253C15.7268 19.8494 17.1456 19.4835 18.3146 18.3101C19.4836 17.1411 19.8495 15.7223 19.9298 14.1205C20.0235 12.4696 20.0235 7.52593 19.9298 5.87507ZM17.797 15.8918C17.449 16.7663 16.7753 17.44 15.8963 17.7925C14.5801 18.3146 11.4568 18.1941 10.0023 18.1941C8.54775 18.1941 5.42003 18.3101 4.10826 17.7925C3.23375 17.4445 2.56002 16.7708 2.20753 15.8918C1.6855 14.5756 1.80597 11.4523 1.80597 9.99777C1.80597 8.54322 1.68997 5.4155 2.20753 4.10374C2.55555 3.22922 3.22929 2.55549 4.10826 2.20301C5.42449 1.68098 8.54775 1.80145 10.0023 1.80145C11.4568 1.80145 14.5846 1.68544 15.8963 2.20301C16.7708 2.55103 17.4446 3.22476 17.797 4.10374C18.3191 5.41997 18.1986 8.54322 18.1986 9.99777C18.1986 11.4523 18.3191 14.58 17.797 15.8918Z" fill="white"/>
</svg>
